{
  "accessors": [
    {
      "bufferView": 2,
      "componentType": 5126,
      "count": 65532,
      "max": [
        3.338409185409546,
        -1.4445959329605103,
        5.027087688446045
      ],
      "min": [
        3.198967456817627,
        -1.6991350650787354,
        4.8773674964904785
      ],
      "type": "VEC3"
    },
    {
      "bufferView": 2,
      "byteOffset": 786384,
      "componentType": 5126,
      "count": 65532,
      "max": [
        0.9999924898147583,
        0.9999777674674988,
        0.9999991655349731
      ],
      "min": [
        -0.999995231628418,
        -0.9999661445617676,
        -0.9999950528144836
      ],
      "type": "VEC3"
    },
    {
      "bufferView": 1,
      "componentType": 5126,
      "count": 65532,
      "max": [
        0.9980987310409546,
        0.999550998210907
      ],
      "min": [
        0.000244140625,
        0.01489269733428955
      ],
      "type": "VEC2"
    },
    {
      "bufferView": 0,
      "componentType": 5125,
      "count": 301140,
      "type": "SCALAR"
    },
    {
      "bufferView": 2,
      "byteOffset": 1572768,
      "componentType": 5126,
      "count": 65532,
      "max": [
        3.3380632400512695,
        -1.473653793334961,
        4.998531818389893
      ],
      "min": [
        3.2127633094787598,
        -1.6655458211898804,
        4.8779168128967285
      ],
      "type": "VEC3"
    },
    {
      "bufferView": 2,
      "byteOffset": 2359152,
      "componentType": 5126,
      "count": 65532,
      "max": [
        0.9999973773956299,
        0.9999575018882751,
        0.9999898672103882
      ],
      "min": [
        -0.9999857544898987,
        -0.9999704360961914,
        -0.9999984502792358
      ],
      "type": "VEC3"
    },
    {
      "bufferView": 1,
      "byteOffset": 524256,
      "componentType": 5126,
      "count": 65532,
      "max": [
        0.9992116093635559,
        0.9997049570083618
      ],
      "min": [
        0.000244140625,
        0.014166474342346191
      ],
      "type": "VEC2"
    },
    {
      "bufferView": 0,
      "byteOffset": 1204560,
      "componentType": 5125,
      "count": 297357,
      "type": "SCALAR"
    },
    {
      "bufferView": 2,
      "byteOffset": 3145536,
      "componentType": 5126,
      "count": 65532,
      "max": [
        3.3380632400512695,
        -1.4439512491226196,
        5.015585422515869
      ],
      "min": [
        3.1978652477264404,
        -1.681359887123108,
        4.8773674964904785
      ],
      "type": "VEC3"
    },
    {
      "bufferView": 2,
      "byteOffset": 3931920,
      "componentType": 5126,
      "count": 65532,
      "max": [
        0.9999973773956299,
        0.9999675750732422,
        0.9999995231628418
      ],
      "min": [
        -0.9999920725822449,
        -0.9999970197677612,
        -0.999985933303833
      ],
      "type": "VEC3"
    },
    {
      "bufferView": 1,
      "byteOffset": 1048512,
      "componentType": 5126,
      "count": 65532,
      "max": [
        0.9996019005775452,
        0.9997484683990479
      ],
      "min": [
        0.000244140625,
        0.0031739473342895508
      ],
      "type": "VEC2"
    },
    {
      "bufferView": 0,
      "byteOffset": 2393988,
      "componentType": 5125,
      "count": 284982,
      "type": "SCALAR"
    },
    {
      "bufferView": 2,
      "byteOffset": 4718304,
      "componentType": 5126,
      "count": 65532,
      "max": [
        3.3466031551361084,
        -1.4690741300582886,
        5.140574932098389
      ],
      "min": [
        3.1806631088256836,
        -1.7665154933929443,
        4.8778767585754395
      ],
      "type": "VEC3"
    },
    {
      "bufferView": 2,
      "byteOffset": 5504688,
      "componentType": 5126,
      "count": 65532,
      "max": [
        0.9999647736549377,
        0.9999984502792358,
        0.999966561794281
      ],
      "min": [
        -0.9999979138374329,
        -0.9985790848731995,
        -0.9999569058418274
      ],
      "type": "VEC3"
    },
    {
      "bufferView": 1,
      "byteOffset": 1572768,
      "componentType": 5126,
      "count": 65532,
      "max": [
        0.9996612668037415,
        0.9997059106826782
      ],
      "min": [
        0.000244140625,
        0.015942752361297607
      ],
      "type": "VEC2"
    },
    {
      "bufferView": 0,
      "byteOffset": 3533916,
      "componentType": 5125,
      "count": 317298,
      "type": "SCALAR"
    },
    {
      "bufferView": 2,
      "byteOffset": 6291072,
      "componentType": 5126,
      "count": 65532,
      "max": [
        3.32719349861145,
        -1.4488483667373657,
        5.093876838684082
      ],
      "min": [
        3.2335615158081055,
        -1.677276372909546,
        4.999513149261475
      ],
      "type": "VEC3"
    },
    {
      "bufferView": 2,
      "byteOffset": 7077456,
      "componentType": 5126,
      "count": 65532,
      "max": [
        0.9999768733978271,
        0.9999762177467346,
        0.9999963045120239
      ],
      "min": [
        -0.9999695420265198,
        -0.9999597668647766,
        -0.9999791383743286
      ],
      "type": "VEC3"
    },
    {
      "bufferView": 1,
      "byteOffset": 2097024,
      "componentType": 5126,
      "count": 65532,
      "max": [
        0.9991284608840942,
        0.9997016787528992
      ],
      "min": [
        0.00024414059589616954,
        0.02563488483428955
      ],
      "type": "VEC2"
    },
    {
      "bufferView": 0,
      "byteOffset": 4803108,
      "componentType": 5125,
      "count": 302556,
      "type": "SCALAR"
    },
    {
      "bufferView": 2,
      "byteOffset": 7863840,
      "componentType": 5126,
      "count": 65532,
      "max": [
        3.3466031551361084,
        -1.432114839553833,
        5.101634502410889
      ],
      "min": [
        3.1978652477264404,
        -1.7665904760360718,
        4.932853698730469
      ],
      "type": "VEC3"
    },
    {
      "bufferView": 2,
      "byteOffset": 8650224,
      "componentType": 5126,
      "count": 65532,
      "max": [
        0.9999873042106628,
        0.9999793171882629,
        0.9999769926071167
      ],
      "min": [
        -0.9998934864997864,
        -0.999983012676239,
        -0.9999687671661377
      ],
      "type": "VEC3"
    },
    {
      "bufferView": 1,
      "byteOffset": 2621280,
      "componentType": 5126,
      "count": 65532,
      "max": [
        0.999601423740387,
        0.9997374415397644
      ],
      "min": [
        0.000244140625,
        0.01098644733428955
      ],
      "type": "VEC2"
    },
    {
      "bufferView": 0,
      "byteOffset": 6013332,
      "componentType": 5125,
      "count": 278436,
      "type": "SCALAR"
    },
    {
      "bufferView": 2,
      "byteOffset": 9436608,
      "componentType": 5126,
      "count": 65532,
      "max": [
        3.3466031551361084,
        -1.633049488067627,
        5.140574932098389
      ],
      "min": [
        3.1806631088256836,
        -1.7665904760360718,
        4.867875099182129
      ],
      "type": "VEC3"
    },
    {
      "bufferView": 2,
      "byteOffset": 10222992,
      "componentType": 5126,
      "count": 65532,
      "max": [
        0.9999727010726929,
        0.9999859929084778,
        0.9999933242797852
      ],
      "min": [
        -0.9999951124191284,
        -0.9998654127120972,
        -0.9999954700469971
      ],
      "type": "VEC3"
    },
    {
      "bufferView": 1,
      "byteOffset": 3145536,
      "componentType": 5126,
      "count": 65532,
      "max": [
        0.9995359778404236,
        0.9997228980064392
      ],
      "min": [
        0.000244140625,
        0.00832068920135498
      ],
      "type": "VEC2"
    },
    {
      "bufferView": 0,
      "byteOffset": 7127076,
      "componentType": 5125,
      "count": 294819,
      "type": "SCALAR"
    },
    {
      "bufferView": 2,
      "byteOffset": 11009376,
      "componentType": 5126,
      "count": 54935,
      "max": [
        3.3466031551361084,
        -1.4719268083572388,
        5.002252101898193
      ],
      "min": [
        3.1992273330688477,
        -1.7665904760360718,
        4.867875099182129
      ],
      "type": "VEC3"
    },
    {
      "bufferView": 2,
      "byteOffset": 11668596,
      "componentType": 5126,
      "count": 54935,
      "max": [
        0.9999972581863403,
        0.9999802708625793,
        0.9999583959579468
      ],
      "min": [
        -0.9999912977218628,
        -0.9984192252159119,
        -0.9999898076057434
      ],
      "type": "VEC3"
    },
    {
      "bufferView": 1,
      "byteOffset": 3669792,
      "componentType": 5126,
      "count": 54935,
      "max": [
        0.9994056224822998,
        0.9997390508651733
      ],
      "min": [
        0.000244140625,
        0.02758800983428955
      ],
      "type": "VEC2"
    },
    {
      "bufferView": 0,
      "byteOffset": 8306352,
      "componentType": 5125,
      "count": 246393,
      "type": "SCALAR"
    }
  ],
  "asset": {
    "extras": {
      "author": "joan.pico (https://sketchfab.com/joan.pico)",
      "license": "SKETCHFAB Standard (https://sketchfab.com/licenses)",
      "source": "https://sketchfab.com/3d-models/gundam-white-ghost-003-bd6d866ac4064c7b966712730aced76e",
      "title": "Gundam white ghost 003"
    },
    "generator": "Sketchfab-16.64.0",
    "version": "2.0"
  },
  "bufferViews": [
    {
      "buffer": 0,
      "byteLength": 9291924,
      "name": "floatBufferViews",
      "target": 34963
    },
    {
      "buffer": 0,
      "byteLength": 4109272,
      "byteOffset": 9291924,
      "byteStride": 8,
      "name": "floatBufferViews",
      "target": 34962
    },
    {
      "buffer": 0,
      "byteLength": 12327816,
      "byteOffset": 13401196,
      "byteStride": 12,
      "name": "floatBufferViews",
      "target": 34962
    }
  ],
  "buffers": [
    {
      "byteLength": 25729012,
      "uri": "scene.bin"
    }
  ],
  "extensionsUsed": [
    "KHR_materials_unlit"
  ],
  "images": [
    {
      "uri": "textures/default_tex0_baseColor.jpeg"
    }
  ],
  "materials": [
    {
      "doubleSided": true,
      "extensions": {
        "KHR_materials_unlit": {}
      },
      "name": "default_tex0",
      "pbrMetallicRoughness": {
        "baseColorTexture": {
          "index": 0
        },
        "metallicFactor": 0.0
      }
    }
  ],
  "meshes": [
    {
      "name": "Object_0",
      "primitives": [
        {
          "attributes": {
            "NORMAL": 1,
            "POSITION": 0,
            "TEXCOORD_0": 2
          },
          "indices": 3,
          "material": 0,
          "mode": 4
        }
      ]
    },
    {
      "name": "Object_1",
      "primitives": [
        {
          "attributes": {
            "NORMAL": 5,
            "POSITION": 4,
            "TEXCOORD_0": 6
          },
          "indices": 7,
          "material": 0,
          "mode": 4
        }
      ]
    },
    {
      "name": "Object_2",
      "primitives": [
        {
          "attributes": {
            "NORMAL": 9,
            "POSITION": 8,
            "TEXCOORD_0": 10
          },
          "indices": 11,
          "material": 0,
          "mode": 4
        }
      ]
    },
    {
      "name": "Object_3",
      "primitives": [
        {
          "attributes": {
            "NORMAL": 13,
            "POSITION": 12,
            "TEXCOORD_0": 14
          },
          "indices": 15,
          "material": 0,
          "mode": 4
        }
      ]
    },
    {
      "name": "Object_4",
      "primitives": [
        {
          "attributes": {
            "NORMAL": 17,
            "POSITION": 16,
            "TEXCOORD_0": 18
          },
          "indices": 19,
          "material": 0,
          "mode": 4
        }
      ]
    },
    {
      "name": "Object_5",
      "primitives": [
        {
          "attributes": {
            "NORMAL": 21,
            "POSITION": 20,
            "TEXCOORD_0": 22
          },
          "indices": 23,
          "material": 0,
          "mode": 4
        }
      ]
    },
    {
      "name": "Object_6",
      "primitives": [
        {
          "attributes": {
            "NORMAL": 25,
            "POSITION": 24,
            "TEXCOORD_0": 26
          },
          "indices": 27,
          "material": 0,
          "mode": 4
        }
      ]
    },
    {
      "name": "Object_7",
      "primitives": [
        {
          "attributes": {
            "NORMAL": 29,
            "POSITION": 28,
            "TEXCOORD_0": 30
          },
          "indices": 31,
          "material": 0,
          "mode": 4
        }
      ]
    }
  ],
  "nodes": [
    {
      "children": [
        1
      ],
      "matrix": [
        1.0,
        0.0,
        0.0,
        0.0,
        0.0,
        2.220446049250313e-16,
        -1.0,
        0.0,
        0.0,
        1.0,
        2.220446049250313e-16,
        0.0,
        0.0,
        0.0,
        0.0,
        1.0
      ],
      "name": "Sketchfab_model"
    },
    {
      "children": [
        2
      ],
      "name": "root"
    },
    {
      "children": [
        3
      ],
      "matrix": [
        1.0,
        0.0,
        0.0,
        0.0,
        0.0,
        2.220446049250313e-16,
        1.0,
        0.0,
        0.0,
        -1.0,
        2.220446049250313e-16,
        0.0,
        0.0,
        0.0,
        0.0,
        1.0
      ],
      "name": "GLTF_SceneRootNode"
    },
    {
      "children": [
        4,
        5,
        6,
        7,
        8,
        9,
        10,
        11
      ],
      "name": "_0"
    },
    {
      "mesh": 0,
      "name": "Object_4"
    },
    {
      "mesh": 1,
      "name": "Object_5"
    },
    {
      "mesh": 2,
      "name": "Object_6"
    },
    {
      "mesh": 3,
      "name": "Object_7"
    },
    {
      "mesh": 4,
      "name": "Object_8"
    },
    {
      "mesh": 5,
      "name": "Object_9"
    },
    {
      "mesh": 6,
      "name": "Object_10"
    },
    {
      "mesh": 7,
      "name": "Object_11"
    }
  ],
  "samplers": [
    {
      "magFilter": 9729,
      "minFilter": 9729,
      "wrapS": 33071,
      "wrapT": 33071
    }
  ],
  "scene": 0,
  "scenes": [
    {
      "name": "Sketchfab_Scene",
      "nodes": [
        0
      ]
    }
  ],
  "textures": [
    {
      "sampler": 0,
      "source": 0
    }
  ]
}
